<svg xmlns="http://www.w3.org/2000/svg" width="1226" height="118.019" viewBox="0 0 1226 118.019"><g transform="translate(-364 -893.981)"><path d="M15.5,31A15.5,15.5,0,0,1,9.467,1.218,15.5,15.5,0,0,1,21.533,29.782,15.4,15.4,0,0,1,15.5,31Zm-2.773-8.244h0l.1.1L25.4,10.173,23.169,7.924,12.727,18.457l-4.557-4.6L5.941,16.109l6.688,6.747.1-.1Z" transform="translate(1495 953)" fill="#fff"/><text transform="translate(694 930)" fill="#fff" font-size="21" font-family="SegoeUI, Segoe UI" letter-spacing="0.02em"><tspan x="0" y="0">schedule at the website seeing what is available or not.</tspan></text><text transform="translate(1532 948)" fill="#fff" font-size="21" font-family="SegoeUI, Segoe UI" letter-spacing="0.02em"><tspan x="0" y="0">Done!</tspan></text><path d="M399,2006.908h969.674" transform="translate(60 -1063)" fill="none" stroke="#e9dbdb" stroke-width="3"/><path d="M610.954,1991.24l13.876,15.838-13.876,14.4" transform="translate(803.845 -1063)" fill="none" stroke="#fffbfb" stroke-width="3"/><g transform="translate(-299.832 224.073)"><path d="M31.892,42.979H8.634A8.634,8.634,0,0,1,0,34.368L6.194.8l0-.023V.758C6.2.505,6.209.25,6.231,0a24.893,24.893,0,0,0,5.247,2.593,24.918,24.918,0,0,0,8.359,1.432,24.828,24.828,0,0,0,9.726-1.964c.727-.307,1.445-.652,2.136-1.024l8.828,33.341a8.635,8.635,0,0,1-8.635,8.6Z" transform="translate(691.339 706.978)" fill="#fff" stroke="#707070" stroke-width="1"/><path d="M24.26,37.793A25,25,0,0,1,0,18.82c5.821-2.548,9.978-7.529,12.439-11.26A42.465,42.465,0,0,0,16.428,0a21.471,21.471,0,0,0,5.809,6.406c3.8,2.922,10.526,6.406,20.966,6.406a53.152,53.152,0,0,0,6.045-.358c0,.141,0,.248,0,.35A24.969,24.969,0,0,1,24.26,37.793Zm6.44-22.67a2.061,2.061,0,1,0,2.061,2.061A2.063,2.063,0,0,0,30.7,15.123Zm-13.912,0a2.061,2.061,0,1,0,2.061,2.061A2.063,2.063,0,0,0,16.789,15.123Z" transform="translate(686.915 671.15)" fill="#fff" stroke="#707070" stroke-width="1"/></g><text transform="translate(364 1007)" fill="#fff" font-size="21" font-family="SegoeUI, Segoe UI" letter-spacing="0.06em"><tspan x="0" y="0">customer</tspan></text><path d="M26.756,78.807h-13.7A8.633,8.633,0,0,1,4.423,70.2l6.194-33.563,0-.023v-.023c0-.255.011-.511.032-.759a25.031,25.031,0,0,0,23.333,2.062c.735-.312,1.453-.656,2.136-1.024L40.95,55.1A18.527,18.527,0,0,0,26.756,78.805Zm10.91-.1h0l-.707-.713.352.273.072.056c.163.127.328.245.49.35l-.106.019-.1.016Zm-4.36-4.4h0l-.3-.3,2.66-2.684.115.116c-.514.586-.969,1.057-1.335,1.435A4.812,4.812,0,0,0,33.308,74.3ZM24.26,37.792A25,25,0,0,1,0,18.819C5.819,16.272,9.976,11.291,12.439,7.56A43.579,43.579,0,0,0,16.427,0l0,.007a21.754,21.754,0,0,0,5.806,6.4c3.8,2.922,10.525,6.406,20.965,6.406a53.245,53.245,0,0,0,6.044-.358l0,.124c0,.084,0,.156,0,.225A24.968,24.968,0,0,1,24.26,37.792Zm-5.5-10.515a6.013,6.013,0,0,0,1.91,2.685,6,6,0,0,0,7.5,0,6.013,6.013,0,0,0,1.91-2.685H18.759ZM30.7,15.122a2.061,2.061,0,1,0,2.061,2.061A2.063,2.063,0,0,0,30.7,15.122Zm-13.912,0a2.061,2.061,0,1,0,2.062,2.061A2.063,2.063,0,0,0,16.789,15.122Z" transform="translate(1466.083 895.223)" fill="#fff"/></g></svg>