<svg xmlns="http://www.w3.org/2000/svg" width="72.966" height="66.027" viewBox="0 0 72.966 66.027"><path d="M12.144-61.278v6.633A28.715,28.715,0,0,1,22.2-46.94a16.094,16.094,0,0,1,4.133,10.46,14.321,14.321,0,0,1-2.194,7.909,41.644,41.644,0,0,1-6.378,7.4,74,74,0,0,0-6.531,7.5A11.328,11.328,0,0,0,9.389-6.987a10.962,10.962,0,0,0,3.776,8.164,12.621,12.621,0,0,0,8.98,3.572,14.555,14.555,0,0,0,8.929-3.317,23.984,23.984,0,0,0,7.093-9.389,32.1,32.1,0,0,0,2.755-13.42,39.421,39.421,0,0,0-7.195-23.472Q26.533-54.951,12.144-61.278Zm14.8,15.41q6.123,7.858,6.123,15.92,0,6.327-2.755,9.8-8.368,9.9-9.746,11.634A5.472,5.472,0,0,0,19.186-5.15q0,3.98,3.98,6.327H20.92a7.544,7.544,0,0,1-6.072-2.449,8.264,8.264,0,0,1-2.092-5.511,8.714,8.714,0,0,1,1.072-4.082,17.51,17.51,0,0,1,2.806-3.878q1.735-1.837,4.49-4.592A39.612,39.612,0,0,0,27.4-26.989a16.36,16.36,0,0,0,2.3-8.674,14.459,14.459,0,0,0-.408-3.419,29.937,29.937,0,0,0-1.225-3.776Q27.248-44.95,26.941-45.868Zm26.533-15.41v6.633a30.2,30.2,0,0,1,10.052,7.807,15.932,15.932,0,0,1,4.031,10.358,14.761,14.761,0,0,1-2.245,8.113,38.995,38.995,0,0,1-6.123,7.195,74,74,0,0,0-6.531,7.5,11.328,11.328,0,0,0-1.837,6.684,10.845,10.845,0,0,0,3.827,8.215,12.774,12.774,0,0,0,8.929,3.521,14.522,14.522,0,0,0,8.776-3.317,24.168,24.168,0,0,0,7.195-9.389,31.6,31.6,0,0,0,2.806-13.42Q82.355-48.726,53.475-61.278Zm14.9,15.41A24.622,24.622,0,0,1,74.4-29.948q0,6.531-2.755,9.8-4.9,5.817-7.093,8.419a40.089,40.089,0,0,0-3.062,3.98,4.927,4.927,0,0,0-.867,2.6,6.07,6.07,0,0,0,.663,3.01,7.208,7.208,0,0,0,1.633,1.99q.969.816,1.684,1.327H62.251A7.576,7.576,0,0,1,56.23-1.272a8.152,8.152,0,0,1-2.143-5.511,8.165,8.165,0,0,1,.561-2.908,14.994,14.994,0,0,1,2.3-3.674A39.477,39.477,0,0,1,59.7-16.58l2.551-2.551a35.87,35.87,0,0,0,6.327-7.7,17.119,17.119,0,0,0,2.245-8.827A28.721,28.721,0,0,0,68.374-45.868Z" transform="translate(82.355 4.749) rotate(180)" fill="#fc6500"/></svg>